<svg width="16" height="20" viewBox="0 0 16 20" fill="none" xmlns="http://www.w3.org/2000/svg">
<g clip-path="url(#clip0_184_9749)">
<path d="M7.9987 12.6667C9.47146 12.6667 10.6654 11.4728 10.6654 10C10.6654 8.52728 9.47146 7.33337 7.9987 7.33337C6.52594 7.33337 5.33203 8.52728 5.33203 10C5.33203 11.4728 6.52594 12.6667 7.9987 12.6667Z" stroke="#6A6A6A" stroke-linecap="round" stroke-linejoin="round"/>
<path d="M8 3.33337V4.66671" stroke="#6A6A6A" stroke-linecap="round" stroke-linejoin="round"/>
<path d="M8 15.3334V16.6667" stroke="#6A6A6A" stroke-linecap="round" stroke-linejoin="round"/>
<path d="M3.28516 5.28662L4.22516 6.22662" stroke="#6A6A6A" stroke-linecap="round" stroke-linejoin="round"/>
<path d="M11.7734 13.7733L12.7134 14.7133" stroke="#6A6A6A" stroke-linecap="round" stroke-linejoin="round"/>
<path d="M1.33203 10H2.66536" stroke="#6A6A6A" stroke-linecap="round" stroke-linejoin="round"/>
<path d="M13.332 10H14.6654" stroke="#6A6A6A" stroke-linecap="round" stroke-linejoin="round"/>
<path d="M4.22516 13.7733L3.28516 14.7133" stroke="#6A6A6A" stroke-linecap="round" stroke-linejoin="round"/>
<path d="M12.7134 5.28662L11.7734 6.22662" stroke="#6A6A6A" stroke-linecap="round" stroke-linejoin="round"/>
</g>
<defs>
<clipPath id="clip0_184_9749">
<rect width="16" height="16" fill="white" transform="translate(0 2)"/>
</clipPath>
</defs>
</svg>
