<svg width="16" height="20" viewBox="0 0 16 20" fill="none" xmlns="http://www.w3.org/2000/svg">
<path d="M5.0013 6.66667C5.73768 6.66667 6.33464 6.06971 6.33464 5.33333C6.33464 4.59695 5.73768 4 5.0013 4C4.26492 4 3.66797 4.59695 3.66797 5.33333C3.66797 6.06971 4.26492 6.66667 5.0013 6.66667Z" stroke="#363636" stroke-linecap="round" stroke-linejoin="round"/>
<path d="M11.0013 6.66667C11.7377 6.66667 12.3346 6.06971 12.3346 5.33333C12.3346 4.59695 11.7377 4 11.0013 4C10.2649 4 9.66797 4.59695 9.66797 5.33333C9.66797 6.06971 10.2649 6.66667 11.0013 6.66667Z" stroke="#363636" stroke-linecap="round" stroke-linejoin="round"/>
<path d="M3.33203 8.66675H6.66536L5.9987 16.0001H3.9987L3.33203 8.66675Z" stroke="#363636" stroke-linecap="round" stroke-linejoin="round"/>
<path d="M9.33464 8.66675H12.668L13.3346 12.3334H12.3346L12.0013 16.0001H10.0013L9.66797 12.3334H8.66797L9.33464 8.66675Z" stroke="#363636" stroke-linecap="round" stroke-linejoin="round"/>
</svg>
