<?xml version="1.0" encoding="utf-8"?>
<!-- Generator: Adobe Illustrator 24.1.2, SVG Export Plug-In . SVG Version: 6.00 Build 0)  -->
<svg version="1.1" xmlns="http://www.w3.org/2000/svg" xmlns:xlink="http://www.w3.org/1999/xlink" x="0px" y="0px"
	 viewBox="0 0 16 16" style="enable-background:new 0 0 16 16;" xml:space="preserve">
<style type="text/css">
	.st0{display:none;}
	.st1{display:inline;fill:none;stroke:#000000;stroke-width:0.25;stroke-miterlimit:10;}
	.st2{display:inline;fill:none;}
	.st3{fill:none;stroke:#222222;stroke-width:2;stroke-miterlimit:10;}
	.st4{display:inline;}
	.st5{fill:none;stroke:#000000;stroke-width:0.25;stroke-miterlimit:10;}
</style>
<g id="Layer_1" class="st0">
	<rect x="7.22" y="1.89" class="st1" width="1.55" height="0.49"/>
	<rect x="6.58" y="0.8" class="st2" width="3.03" height="1.1"/>
</g>
<g id="Layer_2">
	<path class="st3" d="M14.8,7.99c0,3.67-2.97,6.66-6.65,6.66s-6.65-2.99-6.65-6.66c0-3.67,2.97-6.65,6.65-6.65S14.8,4.32,14.8,7.99z
		"/>
</g>
<g id="Layer_3" class="st0">
	<path class="st1" d="M12.94,8.66c0,2.73-2.21,4.95-4.94,4.95s-4.94-2.22-4.94-4.95c0-2.73,2.21-4.94,4.94-4.94
		S12.94,5.93,12.94,8.66z"/>
</g>
<g id="Layer_6" class="st0">
	<path class="st1" d="M8,2.39c-3.44,0-6.22,2.78-6.22,6.22c0,1.86,0.81,3.52,2.1,4.66c0.33,0.3,0.69,0.56,1.08,0.78
		c0.9,0.5,1.94,0.79,3.04,0.79c3.44,0,6.22-2.79,6.22-6.23S11.44,2.39,8,2.39z M8,14.21c-1,0-1.94-0.26-2.75-0.73
		c-0.33-0.18-0.63-0.4-0.91-0.65c-1.16-1.01-1.89-2.5-1.89-4.17C2.45,5.6,4.93,3.11,8,3.11s5.55,2.49,5.55,5.55
		C13.55,11.73,11.07,14.21,8,14.21z"/>
	<path class="st1" d="M8,3.11c-3.07,0-5.55,2.49-5.55,5.55c0,1.67,0.73,3.16,1.89,4.17c0.28,0.25,0.58,0.47,0.91,0.65
		C6.06,13.95,7,14.21,8,14.21c3.07,0,5.55-2.48,5.55-5.55C13.55,5.6,11.07,3.11,8,3.11z M8,13.61c-2.73,0-4.94-2.22-4.94-4.95
		c0-2.73,2.21-4.94,4.94-4.94s4.94,2.21,4.94,4.94C12.94,11.39,10.73,13.61,8,13.61z"/>
	<path class="st1" d="M12.94,8.66c0,2.73-2.21,4.95-4.94,4.95s-4.94-2.22-4.94-4.95c0-2.73,2.21-4.94,4.94-4.94
		S12.94,5.93,12.94,8.66z"/>
</g>
<g id="Layer_4" class="st0">
	<g class="st4">
		<path class="st5" d="M6.38,10.23c-0.9,0.9,4.49-4.49,3.59-3.59"/>
	</g>
	<g class="st4">
		<path class="st5" d="M7.99,5.13c0,0.23,0-1.16,0-0.92"/>
	</g>
	<g class="st4">
		<path class="st5" d="M10.5,6.11c-0.16,0.16,0.82-0.82,0.65-0.65"/>
	</g>
	<g class="st4">
		<path class="st5" d="M11.56,8.61c-0.26,0,1.32,0,1.06,0"/>
	</g>
	<g class="st4">
		<path class="st5" d="M11.17,11.76c0.17,0.16-0.85-0.79-0.68-0.63"/>
	</g>
	<g class="st4">
		<path class="st5" d="M7.99,13.05c0,0.23,0-1.16,0-0.92"/>
	</g>
	<g class="st4">
		<path class="st5" d="M4.85,11.76c-0.16,0.16,0.82-0.82,0.65-0.65"/>
	</g>
	<g class="st4">
		<path class="st5" d="M3.47,8.61c-0.23,0,1.16,0,0.92,0"/>
	</g>
	<g class="st4">
		<path class="st5" d="M5.51,6.16c0.17,0.16-0.85-0.79-0.68-0.63"/>
	</g>
</g>
<g id="Layer_5" class="st0">
	<path class="st1" d="M9.17,6.95c0,0,0.06-0.99-1.35,0.67c-1,0-1.55-0.18-1.58,1.04c0,0.21-0.01,0.68,0.35,0.83"/>
	<path class="st1" d="M9.17,7.86v2.56c0,0-0.16,0.41-0.86-0.42C7.78,9.58,7.78,9.58,7.78,9.58L7.44,9.56"/>
</g>
<g id="Layer_8" class="st0">
	<rect x="7.22" y="1.83" class="st1" width="1.64" height="0.52"/>
</g>
<g id="Layer_7" class="st0">
	<path class="st1" d="M9.33,1.83H6.76c-0.16,0-0.28-0.13-0.28-0.28V1.25c0-0.16,0.13-0.28,0.28-0.28h2.57
		c0.16,0,0.28,0.13,0.28,0.28v0.29C9.61,1.7,9.49,1.83,9.33,1.83z"/>
</g>
<g id="Layer_9" class="st0">
	<path class="st1" d="M2.45,5.79C1.55,5.19,1.39,4,1.93,3.31c0.56-0.73,1.86-0.85,2.65-0.02"/>
	<path class="st1" d="M11.35,3.36c0.71-0.81,1.91-0.82,2.53-0.2c0.66,0.65,0.6,1.95-0.32,2.63"/>
	<path class="st1" d="M13.47,3.46c0.04,0.03,0.41,0.29,0.43,0.76c0.02,0.52-0.4,0.81-0.43,0.83"/>
</g>
</svg>
