<svg width="20" height="21" viewBox="0 0 20 21" fill="none" xmlns="http://www.w3.org/2000/svg">
<path d="M14.1667 7.60677H15.8333C16.7538 7.60677 17.5 8.35296 17.5 9.27344V14.2734C17.5 15.1939 16.7538 15.9401 15.8333 15.9401H14.1667V19.2734L10.8333 15.9401H7.5C7.03976 15.9401 6.6231 15.7536 6.32149 15.4519M6.32149 15.4519L9.16667 12.6068H12.5C13.4205 12.6068 14.1667 11.8606 14.1667 10.9401V5.9401C14.1667 5.01963 13.4205 4.27344 12.5 4.27344H4.16667C3.24619 4.27344 2.5 5.01963 2.5 5.9401V10.9401C2.5 11.8606 3.24619 12.6068 4.16667 12.6068H5.83333V15.9401L6.32149 15.4519Z" stroke="#222222" stroke-linecap="round" stroke-linejoin="round"/>
</svg>
